# xmcd
#
# Track frame offsets: 
#        150
#        13502
#        31242
#        46560
#        68133
#        79165
#        91888
#        116470
#        127116
#        138727
#        149922
#
# Disc length: 2128 seconds
#
# Revision: 0
# Processed by: cddbd v1.5.2PL0 Copyright (c) Steve Scherf et al.
# Submitted via: ExactAudioCopyFreeDBPlugin 1.0
#
DISCID=96084e0b
DTITLE=Brian Cober - Real Far Gone
DYEAR=2010
DGENRE=Rock
TTITLE0=Goin' To New Orleans
TTITLE1=Sweet As Honey
TTITLE2=A Little Bit More
TTITLE3=Don't Tell Me About The Blues
TTITLE4=No Pain, No Limit
TTITLE5=Real Far Gone
TTITLE6=I-52
TTITLE7=Don't Wake
TTITLE8=Long Hard Ride Blues
TTITLE9=Believin' In The Power Of The Lord
TTITLE10=Real House Party
EXTD=
EXTT0=
EXTT1=
EXTT2=
EXTT3=
EXTT4=
EXTT5=
EXTT6=
EXTT7=
EXTT8=
EXTT9=
EXTT10=
PLAYORDER=
